<svg width="127" height="101" viewBox="0 0 127 101" fill="none" xmlns="http://www.w3.org/2000/svg">
<path d="M40.3072 45.6134C40.7867 45.6134 41.4248 45.4548 41.9042 44.9789C48.1311 40.5356 53.2396 36.4096 57.5511 31.9663C59.9458 29.586 62.6596 26.5712 64.7352 22.7625C65.5337 21.1761 66.6513 18.9545 66.4918 16.4156C66.3322 11.0197 64.2566 6.73588 60.1054 3.24438C54.677 -1.1989 46.5341 -0.881638 41.4248 4.19697C40.9462 4.67287 40.6271 4.99013 40.3072 5.46602C37.114 1.34 32.1651 -0.723007 26.8963 0.229585C22.5855 1.02274 19.232 3.40301 16.8373 7.21177C13.4845 12.6068 13.1655 17.8433 16.0388 22.7625C17.4762 25.4608 19.3923 27.9997 21.9466 30.5386C26.4169 35.2992 31.8452 39.9011 38.8706 44.8202C39.0301 45.2961 39.6691 45.6134 40.3072 45.6134Z" fill="#1C6370"/>
<mask id="mask0_1011_1261" style="mask-type:luminance" maskUnits="userSpaceOnUse" x="0" y="49" width="127" height="52">
<path d="M0.0012207 49.856H126.88V100.023H0.0012207V49.856Z" fill="white"/>
</mask>
<g mask="url(#mask0_1011_1261)">
<path d="M126.886 72.8647C125.768 73.0233 121.617 73.4992 117.625 72.8647C117.466 72.8647 117.306 72.8647 117.147 73.0233C116.987 73.1819 116.987 73.3406 117.147 73.4992C117.625 74.451 117.785 75.0863 117.944 75.2449C118.264 76.0381 117.785 76.8312 116.987 77.1485C116.189 77.4666 115.39 76.9899 115.071 76.1967C115.071 76.0381 109.643 61.1219 92.2393 55.5674C77.3909 50.9655 64.299 50.1724 62.8624 50.0137C62.8624 50.0137 58.2317 49.8551 57.1141 52.2354C56.476 53.6639 56.6355 55.2502 57.2737 56.52C57.9126 57.6304 58.8707 58.4244 60.1478 58.7417C73.8786 61.1219 81.7017 68.2628 82.0216 68.4214C82.5002 68.8973 82.6597 69.5318 82.3406 70.1671C82.0216 70.8017 81.5421 71.1189 80.904 71.1189L51.5262 69.3732H51.3667H51.2072L38.913 68.58C38.7534 68.58 38.5939 68.58 38.4344 68.4214C38.274 68.2628 16.5606 59.6934 9.69478 58.7417C9.21617 58.583 4.90539 57.9477 3.78781 60.4866L3.62827 60.8047C2.98931 62.0737 1.87173 64.2954 6.34205 66.8343C13.3674 70.9603 64.7776 89.5266 67.0128 90.3197L107.886 98.7304L124.97 100.158C125.129 100.158 125.289 100.158 125.289 99.9994C132.314 92.0655 129.121 78.4184 127.524 73.0233C127.364 73.0233 127.205 72.8647 126.886 72.8647Z" fill="#1C6370"/>
</g>
<path d="M27.4427 59.7169C27.2832 59.7169 27.2832 59.5583 27.1237 59.5583L20.0983 54.4805C18.6617 53.3693 15.7875 51.9416 14.67 52.5761C12.5943 53.3693 12.5943 55.7495 12.7539 56.8608C12.7539 57.0194 12.9134 57.178 13.073 57.3367C21.8549 59.8756 34.7872 65.112 36.3834 65.5887H36.5429L38.1399 65.7473C38.2995 65.7473 38.6185 65.5887 38.6185 65.4301C38.6185 65.2706 38.6185 64.9534 38.2995 64.7947L27.4427 59.7169Z" fill="#1C6370"/>
</svg>
