<svg width="247" height="197" viewBox="0 0 247 197" fill="none" xmlns="http://www.w3.org/2000/svg">
<path d="M78.2836 89.9091C79.2148 89.9091 80.4542 89.5992 81.3854 88.6697C93.4794 79.9904 103.401 71.9309 111.775 63.2517C116.426 58.6022 121.697 52.7133 125.728 45.2735C127.279 42.1749 129.45 37.8353 129.14 32.876C128.83 22.336 124.799 13.9682 116.736 7.14816C106.193 -1.53106 90.3776 -0.911345 80.4542 9.00889C79.5246 9.93847 78.9049 10.5582 78.2836 11.4878C72.0817 3.42827 62.4698 -0.601485 52.2365 1.25925C43.864 2.80855 37.3507 7.45802 32.6996 14.8978C26.1878 25.4362 25.5681 35.6647 31.1487 45.2735C33.9406 50.5443 37.6621 55.5036 42.623 60.463C51.3054 69.7619 61.8485 78.751 75.4933 88.3598C75.8032 89.2894 77.0442 89.9091 78.2836 89.9091Z" fill="#197B8C"/>
<mask id="mask0_806_1216" style="mask-type:luminance" maskUnits="userSpaceOnUse" x="0" y="98" width="247" height="99">
<path d="M0 98.1963H246.428V196.189H0V98.1963Z" fill="white"/>
</mask>
<g mask="url(#mask0_806_1216)">
<path d="M246.439 143.14C244.268 143.45 236.206 144.379 228.453 143.14C228.143 143.14 227.833 143.14 227.523 143.45C227.214 143.76 227.214 144.069 227.523 144.379C228.453 146.238 228.763 147.479 229.073 147.789C229.694 149.339 228.763 150.888 227.214 151.508C225.663 152.129 224.112 151.198 223.492 149.648C223.492 149.339 212.949 120.202 179.147 109.353C150.308 100.363 124.881 98.8141 122.091 98.5043C122.091 98.5043 113.097 98.1944 110.926 102.844C109.687 105.634 109.997 108.733 111.236 111.213C112.477 113.382 114.338 114.933 116.818 115.553C143.487 120.202 158.681 134.151 159.302 134.461C160.232 135.39 160.542 136.63 159.922 137.871C159.302 139.11 158.371 139.73 157.132 139.73L100.073 136.32H99.7635H99.4537L75.5756 134.77C75.2657 134.77 74.9558 134.77 74.646 134.461C74.3346 134.151 32.1621 117.412 18.8271 115.553C17.8976 115.243 9.52505 114.002 7.35445 118.961L7.04459 119.583C5.80358 122.062 3.63299 126.401 12.3154 131.36C25.9602 139.42 125.811 175.686 130.152 177.235L209.537 193.664L242.718 196.453C243.027 196.453 243.337 196.453 243.337 196.143C256.982 180.645 250.78 153.988 247.678 143.45C247.369 143.45 247.059 143.14 246.439 143.14Z" fill="#197B8C"/>
</g>
<path d="M53.2975 117.458C52.9876 117.458 52.9876 117.148 52.6778 117.148L39.0329 107.229C36.2426 105.059 30.6604 102.27 28.4898 103.51C24.4585 105.059 24.4585 109.708 24.7684 111.879C24.7684 112.189 25.0782 112.499 25.3881 112.809C42.4445 117.768 67.5621 127.996 70.6622 128.928H70.9721L74.0738 129.237C74.3837 129.237 75.0034 128.928 75.0034 128.618C75.0034 128.306 75.0034 127.687 74.3837 127.377L53.2975 117.458Z" fill="#197B8C"/>
</svg>
