<svg width="153" height="36" viewBox="0 0 153 36" fill="none" xmlns="http://www.w3.org/2000/svg">
<path d="M4.15394 35.432C3.03394 35.432 2.21794 35.256 1.70594 34.904C1.22594 34.552 0.905938 34.104 0.745938 33.56C0.585938 32.984 0.505938 32.376 0.505938 31.736V5.48C0.505938 4.872 0.569938 4.296 0.697938 3.752C0.825938 3.176 1.14594 2.712 1.65794 2.36C2.16994 2.008 3.01794 1.848 4.20194 1.88H12.8419C15.1459 1.88 17.2899 2.296 19.2739 3.128C21.2579 3.96 23.0019 5.128 24.5059 6.632C26.0099 8.136 27.1779 9.896 28.0099 11.912C28.8419 13.928 29.2579 16.12 29.2579 18.488C29.2579 20.888 28.8419 23.128 28.0099 25.208C27.1779 27.256 26.0099 29.048 24.5059 30.584C23.0019 32.088 21.2419 33.272 19.2259 34.136C17.2419 35 15.0659 35.432 12.6979 35.432H4.15394ZM7.80194 28.088H12.8419C14.5699 28.088 16.1219 27.688 17.4979 26.888C18.8739 26.056 19.9619 24.936 20.7619 23.528C21.5619 22.12 21.9619 20.504 21.9619 18.68C21.9619 16.856 21.5619 15.224 20.7619 13.784C19.9619 12.344 18.8739 11.224 17.4979 10.424C16.1219 9.592 14.5539 9.176 12.7939 9.176H7.80194V28.088ZM44.4736 35.864C42.2336 35.864 40.2976 35.496 38.6656 34.76C37.0656 34.024 35.7536 33.064 34.7296 31.88C33.7056 30.664 32.9376 29.32 32.4256 27.848C31.9456 26.376 31.7056 24.904 31.7056 23.432C31.7056 21.032 32.2496 18.904 33.3376 17.048C34.4256 15.192 35.9296 13.736 37.8496 12.68C39.7696 11.592 41.9776 11.048 44.4736 11.048C46.3296 11.048 47.9296 11.352 49.2736 11.96C50.6496 12.536 51.7696 13.304 52.6336 14.264C53.5296 15.192 54.1856 16.2 54.6016 17.288C55.0496 18.376 55.2736 19.416 55.2736 20.408C55.2736 22.168 54.8416 23.48 53.9776 24.344C53.1456 25.176 52.0736 25.592 50.7616 25.592H39.3376C39.4016 26.424 39.6896 27.128 40.2016 27.704C40.7456 28.28 41.4176 28.728 42.2176 29.048C43.0176 29.368 43.8656 29.528 44.7616 29.528C45.5296 29.528 46.2016 29.496 46.7776 29.432C47.3536 29.336 47.8496 29.224 48.2656 29.096C48.6816 28.936 49.0656 28.792 49.4176 28.664C49.7696 28.504 50.0736 28.376 50.3296 28.28C50.6176 28.184 50.8896 28.12 51.1456 28.088C51.6256 28.056 52.0576 28.2 52.4416 28.52C52.8576 28.808 53.2256 29.256 53.5456 29.864C53.7696 30.216 53.9136 30.552 53.9776 30.872C54.0736 31.192 54.1216 31.512 54.1216 31.832C54.1216 32.6 53.7216 33.288 52.9216 33.896C52.1536 34.504 51.0496 34.984 49.6096 35.336C48.2016 35.688 46.4896 35.864 44.4736 35.864ZM39.3376 21.656H46.9216C47.4336 21.656 47.8016 21.576 48.0256 21.416C48.2816 21.224 48.4096 20.872 48.4096 20.36C48.4096 19.784 48.2336 19.288 47.8816 18.872C47.5296 18.424 47.0496 18.088 46.4416 17.864C45.8656 17.608 45.1936 17.48 44.4256 17.48C43.4336 17.48 42.5536 17.672 41.7856 18.056C41.0176 18.44 40.4096 18.952 39.9616 19.592C39.5456 20.232 39.3376 20.92 39.3376 21.656Z" fill="#F8DE81"/>
<path d="M67.5668 35.432C66.2548 35.432 65.0868 35.352 64.0628 35.192C63.0708 35.064 62.2068 34.808 61.4708 34.424C60.7668 34.04 60.1908 33.512 59.7428 32.84C59.2948 32.168 58.9588 31.304 58.7348 30.248C58.5428 29.16 58.4468 27.832 58.4468 26.264V4.088C58.4468 3.448 58.4948 2.856 58.5908 2.312C58.7188 1.768 59.0388 1.32 59.5508 0.967998C60.0628 0.615998 60.8948 0.439999 62.0468 0.439999C63.1988 0.439999 64.0148 0.615998 64.4948 0.967998C65.0068 1.32 65.3268 1.768 65.4548 2.312C65.5828 2.856 65.6468 3.448 65.6468 4.088V25.928C65.6468 26.44 65.6628 26.872 65.6948 27.224C65.7588 27.544 65.8548 27.8 65.9828 27.992C66.1428 28.184 66.3508 28.312 66.6068 28.376C66.8628 28.44 67.1988 28.472 67.6148 28.472C67.9988 28.472 68.3828 28.52 68.7668 28.616C69.1828 28.712 69.5348 29 69.8228 29.48C70.1108 29.96 70.2548 30.76 70.2548 31.88C70.2548 33.032 70.1108 33.864 69.8228 34.376C69.5348 34.888 69.1828 35.192 68.7668 35.288C68.3828 35.384 67.9828 35.432 67.5668 35.432ZM84.6923 35.864C82.4523 35.864 80.5163 35.496 78.8843 34.76C77.2843 34.024 75.9723 33.064 74.9483 31.88C73.9243 30.664 73.1563 29.32 72.6443 27.848C72.1643 26.376 71.9243 24.904 71.9243 23.432C71.9243 21.032 72.4683 18.904 73.5563 17.048C74.6443 15.192 76.1483 13.736 78.0683 12.68C79.9883 11.592 82.1963 11.048 84.6923 11.048C86.5483 11.048 88.1483 11.352 89.4923 11.96C90.8683 12.536 91.9883 13.304 92.8523 14.264C93.7483 15.192 94.4043 16.2 94.8203 17.288C95.2683 18.376 95.4923 19.416 95.4923 20.408C95.4923 22.168 95.0603 23.48 94.1963 24.344C93.3643 25.176 92.2923 25.592 90.9803 25.592H79.5563C79.6203 26.424 79.9083 27.128 80.4203 27.704C80.9643 28.28 81.6363 28.728 82.4363 29.048C83.2363 29.368 84.0843 29.528 84.9803 29.528C85.7483 29.528 86.4203 29.496 86.9963 29.432C87.5723 29.336 88.0683 29.224 88.4843 29.096C88.9003 28.936 89.2843 28.792 89.6363 28.664C89.9883 28.504 90.2923 28.376 90.5483 28.28C90.8363 28.184 91.1083 28.12 91.3643 28.088C91.8443 28.056 92.2763 28.2 92.6603 28.52C93.0763 28.808 93.4443 29.256 93.7643 29.864C93.9883 30.216 94.1323 30.552 94.1963 30.872C94.2923 31.192 94.3403 31.512 94.3403 31.832C94.3403 32.6 93.9403 33.288 93.1403 33.896C92.3723 34.504 91.2683 34.984 89.8283 35.336C88.4203 35.688 86.7083 35.864 84.6923 35.864ZM79.5563 21.656H87.1403C87.6523 21.656 88.0203 21.576 88.2443 21.416C88.5003 21.224 88.6283 20.872 88.6283 20.36C88.6283 19.784 88.4523 19.288 88.1003 18.872C87.7483 18.424 87.2683 18.088 86.6603 17.864C86.0843 17.608 85.4123 17.48 84.6443 17.48C83.6523 17.48 82.7723 17.672 82.0043 18.056C81.2363 18.44 80.6283 18.952 80.1803 19.592C79.7643 20.232 79.5563 20.92 79.5563 21.656ZM102.41 35.432C101.226 35.432 100.378 35.272 99.8656 34.952C99.3856 34.6 99.0816 34.152 98.9536 33.608C98.8576 33.032 98.8096 32.44 98.8096 31.832V15.08C98.8096 14.44 98.8576 13.848 98.9536 13.304C99.0816 12.76 99.4016 12.328 99.9136 12.008C100.426 11.656 101.274 11.48 102.458 11.48C103.61 11.48 104.426 11.656 104.906 12.008C105.418 12.36 105.722 12.808 105.818 13.352C105.946 13.896 106.01 14.504 106.01 15.176V31.88C106.01 32.488 105.946 33.08 105.818 33.656C105.722 34.2 105.418 34.632 104.906 34.952C104.426 35.272 103.594 35.432 102.41 35.432ZM102.41 7.976C101.194 7.976 100.33 7.8 99.8176 7.448C99.3056 7.096 98.9856 6.632 98.8576 6.056C98.7616 5.48 98.7136 4.872 98.7136 4.232C98.7136 3.56 98.7776 2.952 98.9056 2.408C99.0336 1.832 99.3536 1.384 99.8656 1.064C100.378 0.711998 101.242 0.535997 102.458 0.535997C103.642 0.535997 104.49 0.711998 105.002 1.064C105.514 1.416 105.818 1.88 105.914 2.456C106.042 3.032 106.106 3.64 106.106 4.28C106.106 4.92 106.042 5.528 105.914 6.104C105.818 6.68 105.514 7.144 105.002 7.496C104.49 7.816 103.626 7.976 102.41 7.976ZM122.202 35.432C120.57 35.432 119.162 35.256 117.978 34.904C116.826 34.552 115.866 34.008 115.098 33.272C114.33 32.536 113.754 31.608 113.37 30.488C113.018 29.336 112.842 27.976 112.842 26.408V6.92C112.842 6.28 112.89 5.704 112.986 5.192C113.114 4.68 113.434 4.264 113.946 3.944C114.458 3.592 115.29 3.416 116.442 3.416C117.594 3.416 118.426 3.592 118.938 3.944C119.45 4.296 119.754 4.744 119.85 5.288C119.978 5.832 120.042 6.424 120.042 7.064V26.12C120.042 26.632 120.074 27.064 120.138 27.416C120.234 27.736 120.362 27.976 120.522 28.136C120.682 28.296 120.906 28.408 121.194 28.472C121.482 28.536 121.834 28.568 122.25 28.568C122.954 28.568 123.578 28.632 124.122 28.76C124.666 28.888 125.082 29.176 125.37 29.624C125.69 30.072 125.85 30.824 125.85 31.88C125.85 33.032 125.674 33.864 125.322 34.376C124.97 34.888 124.506 35.192 123.93 35.288C123.386 35.384 122.81 35.432 122.202 35.432ZM111.354 11.816H116.634L123.258 11.624C123.866 11.624 124.442 11.688 124.986 11.816C125.53 11.912 125.978 12.216 126.33 12.728C126.682 13.24 126.858 14.088 126.858 15.272C126.858 16.36 126.682 17.16 126.33 17.672C126.01 18.184 125.578 18.52 125.034 18.68C124.49 18.808 123.898 18.872 123.258 18.872L116.97 18.728H111.162C110.234 18.696 109.578 18.424 109.194 17.912C108.842 17.368 108.666 16.472 108.666 15.224C108.666 14.072 108.89 13.224 109.338 12.68C109.786 12.104 110.458 11.816 111.354 11.816ZM141.505 35.864C139.265 35.864 137.329 35.496 135.697 34.76C134.097 34.024 132.785 33.064 131.761 31.88C130.737 30.664 129.969 29.32 129.457 27.848C128.977 26.376 128.737 24.904 128.737 23.432C128.737 21.032 129.281 18.904 130.369 17.048C131.457 15.192 132.961 13.736 134.881 12.68C136.801 11.592 139.009 11.048 141.505 11.048C143.361 11.048 144.961 11.352 146.305 11.96C147.681 12.536 148.801 13.304 149.665 14.264C150.561 15.192 151.217 16.2 151.633 17.288C152.081 18.376 152.305 19.416 152.305 20.408C152.305 22.168 151.873 23.48 151.009 24.344C150.177 25.176 149.105 25.592 147.793 25.592H136.369C136.433 26.424 136.721 27.128 137.233 27.704C137.777 28.28 138.449 28.728 139.249 29.048C140.049 29.368 140.897 29.528 141.793 29.528C142.561 29.528 143.233 29.496 143.809 29.432C144.385 29.336 144.881 29.224 145.297 29.096C145.713 28.936 146.097 28.792 146.449 28.664C146.801 28.504 147.105 28.376 147.361 28.28C147.649 28.184 147.921 28.12 148.177 28.088C148.657 28.056 149.089 28.2 149.473 28.52C149.889 28.808 150.257 29.256 150.577 29.864C150.801 30.216 150.945 30.552 151.009 30.872C151.105 31.192 151.153 31.512 151.153 31.832C151.153 32.6 150.753 33.288 149.953 33.896C149.185 34.504 148.081 34.984 146.641 35.336C145.233 35.688 143.521 35.864 141.505 35.864ZM136.369 21.656H143.953C144.465 21.656 144.833 21.576 145.057 21.416C145.313 21.224 145.441 20.872 145.441 20.36C145.441 19.784 145.265 19.288 144.913 18.872C144.561 18.424 144.081 18.088 143.473 17.864C142.897 17.608 142.225 17.48 141.457 17.48C140.465 17.48 139.585 17.672 138.817 18.056C138.049 18.44 137.441 18.952 136.993 19.592C136.577 20.232 136.369 20.92 136.369 21.656Z" fill="white"/>
</svg>
