<svg width="1502" height="351" viewBox="0 0 1502 351" fill="none" xmlns="http://www.w3.org/2000/svg">
<path d="M36.2571 346.272C25.1818 346.272 17.1127 344.531 12.0497 341.051C7.30316 337.57 4.1388 333.14 2.55662 327.76C0.974433 322.064 0.183341 316.052 0.183341 309.723V50.0872C0.183341 44.0749 0.816215 38.3791 2.08196 32.9996C3.34771 27.3038 6.51207 22.7155 11.5751 19.2347C16.638 15.7538 25.0236 14.1717 36.7318 14.4881H122.17C144.953 14.4881 166.154 18.6018 185.773 26.8291C205.392 35.0565 222.638 46.6064 237.511 61.4789C252.383 76.3515 263.933 93.7555 272.161 113.691C280.388 133.626 284.502 155.302 284.502 178.719C284.502 202.451 280.388 224.602 272.161 245.17C263.933 265.422 252.383 283.143 237.511 298.332C222.638 313.204 205.234 324.912 185.299 333.456C165.68 342 144.162 346.272 120.746 346.272H36.2571ZM72.3309 273.65H122.17C139.257 273.65 154.604 269.694 168.211 261.783C181.818 253.556 192.577 242.481 200.488 228.557C208.399 214.634 212.354 198.654 212.354 180.617C212.354 162.58 208.399 146.442 200.488 132.203C192.577 117.963 181.818 106.888 168.211 98.9767C154.604 90.7493 139.099 86.6356 121.695 86.6356H72.3309V273.65ZM434.964 350.544C412.813 350.544 393.669 346.905 377.53 339.627C361.708 332.349 348.735 322.856 338.609 311.147C328.483 299.123 320.888 285.832 315.825 271.276C311.079 256.72 308.705 242.164 308.705 227.608C308.705 203.875 314.085 182.832 324.844 164.479C335.602 146.126 350.475 131.728 369.461 121.285C388.447 110.527 410.281 105.147 434.964 105.147C453.317 105.147 469.139 108.153 482.429 114.166C496.036 119.861 507.111 127.456 515.655 136.949C524.515 146.126 531.002 156.093 535.116 166.852C539.546 177.611 541.761 187.895 541.761 197.705C541.761 215.109 537.489 228.083 528.945 236.627C520.718 244.854 510.117 248.968 497.143 248.968H384.175C384.808 257.195 387.656 264.157 392.719 269.852C398.099 275.548 404.744 279.978 412.655 283.143C420.566 286.307 428.951 287.889 437.811 287.889C445.406 287.889 452.051 287.573 457.747 286.94C463.443 285.991 468.348 284.883 472.461 283.617C476.575 282.035 480.372 280.611 483.853 279.346C487.334 277.763 490.34 276.498 492.871 275.548C495.719 274.599 498.409 273.966 500.941 273.65C505.687 273.333 509.959 274.757 513.756 277.922C517.87 280.77 521.509 285.2 524.673 291.212C526.888 294.693 528.312 298.015 528.945 301.18C529.895 304.344 530.369 307.508 530.369 310.673C530.369 318.267 526.414 325.071 518.503 331.083C510.908 337.095 499.991 341.842 485.752 345.323C471.828 348.803 454.899 350.544 434.964 350.544ZM384.175 210.046H459.171C464.234 210.046 467.873 209.255 470.088 207.673C472.62 205.774 473.885 202.293 473.885 197.23C473.885 191.534 472.145 186.63 468.664 182.516C465.183 178.086 460.437 174.763 454.424 172.548C448.729 170.017 442.083 168.751 434.489 168.751C424.679 168.751 415.977 170.65 408.383 174.447C400.788 178.244 394.776 183.307 390.346 189.636C386.232 195.964 384.175 202.768 384.175 210.046Z" fill="#8FCDD5"/>
<path d="M663.324 346.272C650.351 346.272 638.801 345.481 628.675 343.899C618.865 342.633 610.321 340.101 603.043 336.304C596.082 332.507 590.386 327.286 585.956 320.641C581.526 313.995 578.203 305.452 575.988 295.009C574.089 284.25 573.14 271.118 573.14 255.613V36.3222C573.14 29.9935 573.615 24.1394 574.564 18.76C575.83 13.3806 578.994 8.95046 584.057 5.46965C589.12 1.98885 597.347 0.248453 608.739 0.248453C620.131 0.248453 628.2 1.98885 632.947 5.46965C638.01 8.95046 641.174 13.3806 642.44 18.76C643.705 24.1394 644.338 29.9935 644.338 36.3222V252.29C644.338 257.353 644.496 261.625 644.813 265.106C645.446 268.27 646.395 270.802 647.661 272.7C649.243 274.599 651.3 275.865 653.831 276.498C656.363 277.13 659.685 277.447 663.799 277.447C667.596 277.447 671.394 277.922 675.191 278.871C679.305 279.82 682.785 282.668 685.633 287.415C688.481 292.161 689.905 300.072 689.905 311.147C689.905 322.539 688.481 330.767 685.633 335.829C682.785 340.892 679.305 343.899 675.191 344.848C671.394 345.797 667.438 346.272 663.324 346.272ZM832.672 350.544C810.522 350.544 791.377 346.905 775.239 339.627C759.417 332.349 746.443 322.856 736.318 311.147C726.192 299.123 718.597 285.832 713.534 271.276C708.788 256.72 706.414 242.164 706.414 227.608C706.414 203.875 711.794 182.832 722.553 164.479C733.311 146.126 748.184 131.728 767.17 121.285C786.156 110.527 807.99 105.147 832.672 105.147C851.026 105.147 866.848 108.153 880.138 114.166C893.745 119.861 904.82 127.456 913.364 136.949C922.224 146.126 928.711 156.093 932.825 166.852C937.255 177.611 939.47 187.895 939.47 197.705C939.47 215.109 935.198 228.083 926.654 236.627C918.427 244.854 907.826 248.968 894.852 248.968H781.884C782.517 257.195 785.365 264.157 790.428 269.852C795.808 275.548 802.453 279.978 810.364 283.143C818.275 286.307 826.66 287.889 835.52 287.889C843.115 287.889 849.76 287.573 855.456 286.94C861.152 285.991 866.057 284.883 870.17 283.617C874.284 282.035 878.081 280.611 881.562 279.346C885.043 277.763 888.049 276.498 890.58 275.548C893.428 274.599 896.118 273.966 898.65 273.65C903.396 273.333 907.668 274.757 911.465 277.922C915.579 280.77 919.218 285.2 922.382 291.212C924.597 294.693 926.021 298.015 926.654 301.18C927.603 304.344 928.078 307.508 928.078 310.673C928.078 318.267 924.123 325.071 916.212 331.083C908.617 337.095 897.7 341.842 883.461 345.323C869.537 348.803 852.608 350.544 832.672 350.544ZM781.884 210.046H856.88C861.943 210.046 865.582 209.255 867.797 207.673C870.328 205.774 871.594 202.293 871.594 197.23C871.594 191.534 869.854 186.63 866.373 182.516C862.892 178.086 858.146 174.763 852.133 172.548C846.437 170.017 839.792 168.751 832.198 168.751C822.388 168.751 813.686 170.65 806.092 174.447C798.497 178.244 792.485 183.307 788.055 189.636C783.941 195.964 781.884 202.768 781.884 210.046ZM1007.87 346.272C996.164 346.272 987.778 344.69 982.715 341.525C977.969 338.045 974.963 333.614 973.697 328.235C972.748 322.539 972.273 316.685 972.273 310.673V145.018C972.273 138.689 972.748 132.835 973.697 127.456C974.963 122.077 978.127 117.805 983.19 114.64C988.253 111.159 996.638 109.419 1008.35 109.419C1019.74 109.419 1027.81 111.159 1032.55 114.64C1037.62 118.121 1040.62 122.551 1041.57 127.931C1042.84 133.31 1043.47 139.322 1043.47 145.968V311.147C1043.47 317.16 1042.84 323.014 1041.57 328.71C1040.62 334.089 1037.62 338.361 1032.55 341.525C1027.81 344.69 1019.58 346.272 1007.87 346.272ZM1007.87 74.7693C995.847 74.7693 987.304 73.0289 982.241 69.5481C977.178 66.0673 974.013 61.4789 972.748 55.7831C971.798 50.0872 971.324 44.0749 971.324 37.7462C971.324 31.101 971.956 25.0887 973.222 19.7093C974.488 14.0134 977.652 9.58334 982.715 6.41897C987.778 2.93816 996.322 1.19775 1008.35 1.19775C1020.05 1.19775 1028.44 2.93816 1033.5 6.41897C1038.57 9.89977 1041.57 14.4881 1042.52 20.184C1043.79 25.8798 1044.42 31.8921 1044.42 38.2208C1044.42 44.5496 1043.79 50.5619 1042.52 56.2577C1041.57 61.9536 1038.57 66.5419 1033.5 70.0227C1028.44 73.1871 1019.9 74.7693 1007.87 74.7693ZM1203.6 346.272C1187.46 346.272 1173.54 344.531 1161.83 341.051C1150.44 337.57 1140.94 332.19 1133.35 324.912C1125.75 317.634 1120.06 308.458 1116.26 297.382C1112.78 285.991 1111.04 272.542 1111.04 257.037V64.3269C1111.04 57.9981 1111.51 52.3023 1112.46 47.2393C1113.73 42.1763 1116.89 38.0626 1121.96 34.8983C1127.02 31.4175 1135.25 29.677 1146.64 29.677C1158.03 29.677 1166.26 31.4175 1171.32 34.8983C1176.38 38.3791 1179.39 42.8092 1180.34 48.1886C1181.6 53.568 1182.24 59.4221 1182.24 65.7508V254.189C1182.24 259.252 1182.55 263.524 1183.19 267.005C1184.14 270.169 1185.4 272.542 1186.98 274.124C1188.57 275.707 1190.78 276.814 1193.63 277.447C1196.48 278.08 1199.96 278.396 1204.07 278.396C1211.03 278.396 1217.2 279.029 1222.58 280.295C1227.96 281.561 1232.08 284.409 1234.92 288.839C1238.09 293.269 1239.67 300.705 1239.67 311.147C1239.67 322.539 1237.93 330.767 1234.45 335.829C1230.97 340.892 1226.38 343.899 1220.68 344.848C1215.3 345.797 1209.61 346.272 1203.6 346.272ZM1096.32 112.742H1148.54L1214.04 110.843C1220.05 110.843 1225.75 111.476 1231.13 112.742C1236.51 113.691 1240.94 116.697 1244.42 121.76C1247.9 126.823 1249.64 135.209 1249.64 146.917C1249.64 157.676 1247.9 165.587 1244.42 170.65C1241.25 175.713 1236.98 179.035 1231.6 180.617C1226.22 181.883 1220.37 182.516 1214.04 182.516L1151.86 181.092H1094.43C1085.25 180.776 1078.76 178.086 1074.97 173.023C1071.48 167.643 1069.74 158.783 1069.74 146.442C1069.74 135.05 1071.96 126.665 1076.39 121.285C1080.82 115.59 1087.46 112.742 1096.32 112.742ZM1394.47 350.544C1372.32 350.544 1353.18 346.905 1337.04 339.627C1321.22 332.349 1308.24 322.856 1298.12 311.147C1287.99 299.123 1280.4 285.832 1275.33 271.276C1270.59 256.72 1268.21 242.164 1268.21 227.608C1268.21 203.875 1273.59 182.832 1284.35 164.479C1295.11 146.126 1309.98 131.728 1328.97 121.285C1347.95 110.527 1369.79 105.147 1394.47 105.147C1412.82 105.147 1428.65 108.153 1441.94 114.166C1455.54 119.861 1466.62 127.456 1475.16 136.949C1484.02 146.126 1490.51 156.093 1494.62 166.852C1499.05 177.611 1501.27 187.895 1501.27 197.705C1501.27 215.109 1497 228.083 1488.45 236.627C1480.23 244.854 1469.62 248.968 1456.65 248.968H1343.68C1344.32 257.195 1347.16 264.157 1352.23 269.852C1357.61 275.548 1364.25 279.978 1372.16 283.143C1380.07 286.307 1388.46 287.889 1397.32 287.889C1404.91 287.889 1411.56 287.573 1417.25 286.94C1422.95 285.991 1427.86 284.883 1431.97 283.617C1436.08 282.035 1439.88 280.611 1443.36 279.346C1446.84 277.763 1449.85 276.498 1452.38 275.548C1455.23 274.599 1457.92 273.966 1460.45 273.65C1465.19 273.333 1469.47 274.757 1473.26 277.922C1477.38 280.77 1481.02 285.2 1484.18 291.212C1486.4 294.693 1487.82 298.015 1488.45 301.18C1489.4 304.344 1489.88 307.508 1489.88 310.673C1489.88 318.267 1485.92 325.071 1478.01 331.083C1470.42 337.095 1459.5 341.842 1445.26 345.323C1431.34 348.803 1414.41 350.544 1394.47 350.544ZM1343.68 210.046H1418.68C1423.74 210.046 1427.38 209.255 1429.6 207.673C1432.13 205.774 1433.39 202.293 1433.39 197.23C1433.39 191.534 1431.65 186.63 1428.17 182.516C1424.69 178.086 1419.94 174.763 1413.93 172.548C1408.24 170.017 1401.59 168.751 1394 168.751C1384.19 168.751 1375.48 170.65 1367.89 174.447C1360.3 178.244 1354.28 183.307 1349.85 189.636C1345.74 195.964 1343.68 202.768 1343.68 210.046Z" fill="#197B8C"/>
</svg>
