<svg width="45" height="37" viewBox="0 0 45 37" fill="none" xmlns="http://www.w3.org/2000/svg">
<path d="M0.251953 19.3256V28.9815C0.251953 29.4937 0.464084 29.9849 0.841681 30.3471C1.21928 30.7092 1.73141 30.9127 2.26541 30.9127H4.27886C4.27886 32.4492 4.91526 33.9229 6.04805 35.0094C7.18084 36.0959 8.71723 36.7063 10.3192 36.7063C11.9212 36.7063 13.4576 36.0959 14.5904 35.0094C15.7232 33.9229 16.3596 32.4492 16.3596 30.9127H28.4403C28.4403 32.4492 29.0767 33.9229 30.2095 35.0094C31.3423 36.0959 32.8787 36.7063 34.4807 36.7063C36.0827 36.7063 37.6191 36.0959 38.7519 35.0094C39.8847 33.9229 40.5211 32.4492 40.5211 30.9127H42.5345C43.0685 30.9127 43.5807 30.7092 43.9583 30.3471C44.3359 29.9849 44.548 29.4937 44.548 28.9815V5.80724C44.548 4.27069 43.9116 2.79707 42.7788 1.71057C41.646 0.624064 40.1096 0.0136719 38.5076 0.0136719H20.3865C18.7845 0.0136719 17.2481 0.624064 16.1153 1.71057C14.9825 2.79707 14.3461 4.27069 14.3461 5.80724V9.66962H10.3192C9.3815 9.66962 8.45664 9.87903 7.6179 10.2813C6.77916 10.6835 6.04958 11.2675 5.48694 11.987L0.654644 18.1669C0.595754 18.2508 0.548383 18.3417 0.513702 18.4372L0.392895 18.6496C0.304033 18.865 0.256292 19.094 0.251953 19.3256ZM32.4672 30.9127C32.4672 30.5307 32.5853 30.1574 32.8066 29.8398C33.0278 29.5222 33.3423 29.2747 33.7102 29.1285C34.0781 28.9823 34.4829 28.9441 34.8735 29.0186C35.2641 29.0931 35.6228 29.2771 35.9044 29.5471C36.186 29.8172 36.3778 30.1613 36.4555 30.5359C36.5332 30.9106 36.4933 31.2989 36.3409 31.6517C36.1885 32.0046 35.9304 32.3062 35.5993 32.5184C35.2682 32.7306 34.8789 32.8439 34.4807 32.8439C33.9467 32.8439 33.4346 32.6404 33.057 32.2783C32.6794 31.9161 32.4672 31.4249 32.4672 30.9127ZM18.3731 5.80724C18.3731 5.29506 18.5852 4.80385 18.9628 4.44168C19.3404 4.07951 19.8525 3.87605 20.3865 3.87605H38.5076C39.0416 3.87605 39.5537 4.07951 39.9313 4.44168C40.3089 4.80385 40.5211 5.29506 40.5211 5.80724V27.0503H38.9506C38.3844 26.4529 37.6944 25.9756 36.9246 25.6489C36.1549 25.3223 35.3224 25.1535 34.4807 25.1535C33.639 25.1535 32.8066 25.3223 32.0368 25.6489C31.2671 25.9756 30.577 26.4529 30.0108 27.0503H18.3731V5.80724ZM14.3461 17.3944H6.29232L8.70847 14.3045C8.89602 14.0646 9.13921 13.87 9.41879 13.7359C9.69837 13.6018 10.0067 13.532 10.3192 13.532H14.3461V17.3944ZM8.30578 30.9127C8.30578 30.5307 8.42386 30.1574 8.64511 29.8398C8.86635 29.5222 9.18081 29.2747 9.54872 29.1285C9.91663 28.9823 10.3215 28.9441 10.712 29.0186C11.1026 29.0931 11.4614 29.2771 11.743 29.5471C12.0245 29.8172 12.2163 30.1613 12.294 30.5359C12.3717 30.9106 12.3318 31.2989 12.1794 31.6517C12.027 32.0046 11.769 32.3062 11.4378 32.5184C11.1067 32.7306 10.7175 32.8439 10.3192 32.8439C9.78523 32.8439 9.2731 32.6404 8.8955 32.2783C8.51791 31.9161 8.30578 31.4249 8.30578 30.9127ZM4.27886 21.2568H14.3461V26.6255C13.1579 25.6069 11.598 25.08 10.0065 25.1595C8.41501 25.2391 6.92077 25.9187 5.84936 27.0503H4.27886V21.2568Z" fill="#197B8C"/>
</svg>
