<svg width="38" height="40" viewBox="0 0 38 40" fill="none" xmlns="http://www.w3.org/2000/svg">
<path id="Vector" d="M2 13.7761V33.4028C2 34.4439 2.43752 35.4423 3.21631 36.1785C3.99511 36.9146 5.05137 37.3282 6.15275 37.3282H31.0693C32.1706 37.3282 33.2269 36.9146 34.0057 36.1785C34.7845 35.4423 35.222 34.4439 35.222 33.4028V13.7761M2 13.7761V9.8507C2 8.80964 2.43752 7.81121 3.21631 7.07506C3.99511 6.33891 5.05137 5.92535 6.15275 5.92535H10.3055M2 13.7761H35.222M35.222 13.7761V9.8507C35.222 8.80964 34.7845 7.81121 34.0057 7.07506C33.2269 6.33891 32.1706 5.92535 31.0693 5.92535H26.9165M10.3055 5.92535H26.9165M10.3055 5.92535V2M26.9165 5.92535V2" stroke="#197B8C" stroke-width="3.92535" stroke-linecap="round" stroke-linejoin="round"/>
</svg>
