<svg width="110" height="110" viewBox="0 0 110 110" fill="none" xmlns="http://www.w3.org/2000/svg">
<path fill-rule="evenodd" clip-rule="evenodd" d="M79.6691 25.9209H61.3879C51.8712 25.9209 51.3466 36.2818 51.3466 40.6727V64.3818C51.3466 67.4532 53.7139 68.6634 56.3257 66.5543L67.2226 57.7423C71.6104 54.1899 76.5313 54.6105 79.0039 59.3229C79.7901 60.8014 81.1128 61.2422 83.253 59.6163L87.877 56.084C89.6032 54.7759 89.7144 53.4513 89.7144 51.9542V40.6727C89.7144 36.2818 89.3147 25.9209 79.6691 25.9209Z" fill="#197B8C"/>
<path fill-rule="evenodd" clip-rule="evenodd" d="M83.408 0C86.2724 0 86.2724 6.52377 83.408 6.52377H75.5253V10.7536H78.5067C79.9661 10.7536 81.1428 12.0465 81.1428 13.6538V19.0155C81.1428 20.6255 79.9661 21.9149 78.5067 21.9149H62.5503C61.0935 21.9149 59.9155 20.6255 59.9155 19.0155V13.6538C59.9155 12.0465 61.0922 10.7536 62.5503 10.7536H65.5343V6.52377H49.708L43.2114 12.7024C40.7015 14.3952 37.6239 11.6316 39.6007 9.22835L45.4903 0.316409C45.8174 0.112181 46.1869 0 46.5735 0H83.408Z" fill="#197B8C"/>
<path d="M39.0819 19.5996L42.2877 25.1634C43.9361 28.0276 45.1796 30.766 45.3738 32.8881C45.6015 35.3338 45.0854 37.4933 43.9001 39.0315C42.7155 40.5646 40.8506 41.5433 38.1936 41.5433C35.5432 41.5433 33.6776 40.5646 32.495 39.0315C31.3104 37.4947 30.7858 35.3352 31.0134 32.8881C31.2136 30.766 32.4512 28.0276 34.0995 25.1634L37.3354 19.5579C37.6834 18.9632 38.7267 18.9891 39.0819 19.5996Z" fill="#197B8C"/>
<path d="M97.8679 57.5252C96.0861 55.1888 93.3689 56.3416 90.7276 58.4823L80.6555 66.655L67.4581 73.2852C66.0014 74.0173 66.1185 75.0967 67.9245 75.2916C70.1753 75.5447 71.2696 76.3954 72.4006 77.2763C73.3327 77.999 73.489 78.2004 74.4211 77.7308L84.607 72.6071L97.3577 61.9938C98.8177 60.7821 98.8092 58.757 97.8679 57.5252Z" fill="#197B8C"/>
<path d="M97.5573 67.5039L86.4943 75.5708L75.8597 79.5727C74.8962 79.9351 74.3277 80.3141 74.7097 81.2813C75.1984 82.516 75.392 84.8431 75.1094 85.6549C74.8648 86.3467 75.5398 87.0148 76.3241 86.7868L90.5341 82.6721C92.9458 80.8002 103.107 71.9278 103.107 71.9278C104.441 70.7629 104.745 69.0967 103.967 68.008C102.472 65.9427 100.23 65.5587 97.5573 67.5039Z" fill="#197B8C"/>
<path d="M105.906 82.9155L70.4847 91.8426L48.6137 92.4704L37.2517 98.293C35.5138 99.1861 34.439 97.2438 36.1044 96.1709L47.5625 88.7633L68.6191 87.8608C71.1787 87.4315 72.3411 86.2256 72.5935 84.8018C73.0828 82.108 70.9569 78.726 66.6267 78.1262L36.3863 73.8634C24.3016 71.5823 14.9458 76.6629 10.3415 81.7225L2.8754 89.9261C0.127466 92.9435 -0.382743 96.1536 0.234087 99.2645C0.839143 102.368 2.70337 105.33 4.80831 107.136C7.90881 109.81 10.3375 110.201 12.7172 109.926C15.1021 109.657 17.4412 108.557 19.9857 108.096C24.6188 107.255 26.7277 107.092 31.4353 107.287L55.9476 108.312C59.7389 108.474 62.0839 107.595 65.6822 106.126L107.744 90.267C112.073 88.6303 109.452 82.0188 105.906 82.9155Z" fill="#197B8C"/>
<path d="M69.0042 61.0938L56.9024 70.4315L55.135 71.4138C54.0106 72.0387 54.2382 73.1864 56.2673 73.6768L61.166 74.2981C62.9419 74.529 63.6823 73.761 64.9487 72.5931L74.3398 63.8998C77.1748 61.2722 72.7641 58.2008 69.0042 61.0938Z" fill="#197B8C"/>
</svg>
