<svg width="43" height="31" viewBox="0 0 43 31" fill="none" xmlns="http://www.w3.org/2000/svg">
<path d="M21.3701 2.69165C9.14475 2.69165 3.21333 13.1894 2.1608 15.2676C2.10384 15.3779 2.07422 15.4992 2.07422 15.6222C2.07422 15.7452 2.10384 15.8665 2.1608 15.9769C3.21139 18.055 9.14281 28.5528 21.3701 28.5528C33.5973 28.5528 39.5268 18.055 40.5793 15.9769C40.6363 15.8665 40.6659 15.7452 40.6659 15.6222C40.6659 15.4992 40.6363 15.3779 40.5793 15.2676C39.5287 13.1894 33.5973 2.69165 21.3701 2.69165Z" stroke="#197B8C" stroke-width="3.69445" stroke-linecap="round" stroke-linejoin="round"/>
<path d="M21.3718 21.1639C24.5834 21.1639 27.1869 18.6828 27.1869 15.6222C27.1869 12.5617 24.5834 10.0806 21.3718 10.0806C18.1602 10.0806 15.5566 12.5617 15.5566 15.6222C15.5566 18.6828 18.1602 21.1639 21.3718 21.1639Z" stroke="#197B8C" stroke-width="3.69445" stroke-linecap="round" stroke-linejoin="round"/>
</svg>
