<svg width="48" height="72" viewBox="0 0 48 72" fill="none" xmlns="http://www.w3.org/2000/svg">
<path d="M6.55825 7.27056C5.81349 7.26051 5.22569 6.42881 5.26694 5.65113C5.32079 4.65987 5.27955 3.6774 5.27267 2.68866C5.26809 1.9583 5.31812 1.45618 5.42277 1.1823C5.69433 0.472462 6.21566 0.120684 6.93636 0.118171C18.1705 0.0896942 29.4039 0.0503283 40.6365 7.43902e-05C41.3057 -0.0024383 41.7808 0.0587029 42.0619 0.1835C43.6603 0.890824 43.3635 3.30176 43.3555 4.9036C43.3452 6.92255 41.7617 7.28312 40.2939 7.23915C39.2856 7.21025 38.0894 7.25799 37.2771 7.25799C31.9002 7.25464 26.523 7.26553 21.1454 7.29066C14.6525 7.32165 9.79016 7.31495 6.55825 7.27056Z" fill="#197B8C"/>
<path d="M28.5926 2.38742C29.3374 2.39747 28.7887 1.08023 28.7474 1.85791C28.6936 2.84916 24.2627 3.90577 31.8442 4.50874C31.8488 5.23909 28.5424 4.80988 28.4377 5.08377C28.1662 5.7936 18.494 4.35294 29.212 6.6118C17.9779 6.64028 18.2365 7.24069 7.00392 7.29094C6.33478 7.29345 5.85965 7.23231 5.57854 7.10752C3.98017 6.40019 4.27691 3.98926 4.28493 2.38742C4.29525 0.368466 5.87875 0.00789499 7.34651 0.051867C8.3548 0.0807629 9.55103 0.0330224 10.3634 0.0330224C15.7402 0.0363727 21.1175 0.0254836 26.4951 0.000356674C32.9879 -0.030633 25.3607 2.34303 28.5926 2.38742Z" fill="#197B8C"/>
<path d="M13.2934 71.3882C7.00983 71.1131 1.83769 66.5261 0.353887 59.8386C0.272153 59.4701 0.231669 59.0651 0.232432 58.6237C0.256112 46.2881 0.274833 33.9511 0.288582 21.613C0.289728 20.2863 0.572738 19.3704 1.03106 18.1543C1.83693 16.0168 2.77458 14.126 3.84399 12.4818C4.30574 11.7708 4.45355 11.184 5.26363 10.8863C5.45612 10.8159 5.75021 10.7816 6.1459 10.7833C17.445 10.8285 28.7444 10.8712 40.0443 10.9114C41.2462 10.9164 42.4195 10.8046 43.201 12.0195C44.883 14.634 46.4871 17.516 47.2559 20.5526C47.3384 20.8801 47.3801 21.2365 47.3808 21.6218C47.403 33.9524 47.4225 46.2826 47.4393 58.6124C47.4404 59.2481 47.3797 59.968 47.2032 60.6113C45.8298 65.6333 42.8809 69.0732 38.3565 70.9309C37.941 71.1018 37.3395 71.2534 36.5519 71.3857C36.0111 71.4762 35.3966 71.5226 34.7083 71.5252C28.757 71.5465 22.7943 71.4008 16.8419 71.3329C15.7694 71.3204 14.4506 71.4385 13.2934 71.3882ZM3.96544 59.0471C4.94853 63.3476 8.10291 66.5852 12.1224 67.2473C12.628 67.331 13.3896 67.3662 14.4071 67.3528C15.9898 67.3327 17.5725 67.3327 19.1553 67.3528C24.2678 67.4173 29.3804 67.4776 34.4929 67.5337C35.1231 67.5413 35.7877 67.53 36.2952 67.3805C39.9985 66.2832 42.4417 63.7379 43.6249 59.7444C43.7196 59.4261 43.767 59.143 43.767 58.8951C43.783 52.6728 43.7693 44.7055 43.7257 34.9931C43.7257 34.9437 43.7383 34.8947 43.7635 34.8461C43.7733 34.8263 43.7784 34.8043 43.7784 34.782C43.7494 30.6126 43.736 26.4432 43.7383 22.2738C43.7383 21.4987 43.5413 20.7499 43.2972 20.0941C42.6403 18.3377 41.8951 16.6579 41.0618 15.0548C41.0433 15.019 41.0165 14.9892 40.9841 14.9685C40.9517 14.9477 40.9148 14.9368 40.8773 14.9367L6.69702 14.7973C6.63591 14.7973 6.59008 14.8266 6.55953 14.8852C5.70858 16.5369 4.96534 18.2196 4.3298 19.9332C4.05328 20.6804 3.91579 21.4915 3.91732 22.3668C3.93947 31.7123 3.94253 43.8231 3.92649 58.6991C3.92649 58.818 3.93947 58.934 3.96544 59.0471Z" fill="#197B8C"/>
</svg>
